<?xml version="1.0" encoding="UTF-8"?>
<svg width="512" height="512" viewBox="0 0 512 512" fill="none" xmlns="http://www.w3.org/2000/svg">
  <!-- Solid dark background (no transparency for iOS compatibility) -->
  <rect width="512" height="512" fill="#0a0a0a" rx="0"/>
  
  <!-- Logo centered with padding: scale 14 instead of 16 for 12.5% padding on each side -->
  <!-- Original viewBox: 32x32, Target: ~87.5% of 512 = 448px, Scale: 448/32 = 14 -->
  <!-- Offset: (512-448)/2 = 32px padding on each side -->
  <g transform="translate(32, 64) scale(14)">
    <!-- Podium: 2nd (left), 1st (center), 3rd (right) -->
    <path d="M2 20h8v10H2V20z" fill="#fafafa" opacity="0.5"/>
    <path d="M12 14h8v16h-8V14z" fill="#facc15"/>
    <path d="M22 18h8v12h-8V18z" fill="#fafafa" opacity="0.5"/>
    
    <!-- 3 happy faces (heads) -->
    <circle cx="6" cy="16" r="2.5" fill="#fafafa"/>
    <path d="M5.2 17.8a1 1 0 001.6 0" stroke="#0a0a0a" stroke-width="0.6" fill="none" stroke-linecap="round"/>
    <path d="M4 15.2l-1 .8M8 15.2l1 .8" stroke="#0a0a0a" stroke-width="0.8" stroke-linecap="round"/>
    
    <circle cx="16" cy="10" r="2.8" fill="#fafafa"/>
    <path d="M14.8 11.9a1.2 1.2 0 002.4 0" stroke="#0a0a0a" stroke-width="0.6" fill="none" stroke-linecap="round"/>
    <path d="M13.2 9.5l-1.2 .8M18.8 9.5l1.2 .8" stroke="#0a0a0a" stroke-width="0.8" stroke-linecap="round"/>
    
    <circle cx="26" cy="15" r="2.5" fill="#fafafa"/>
    <path d="M25.2 16.8a1 1 0 001.6 0" stroke="#0a0a0a" stroke-width="0.6" fill="none" stroke-linecap="round"/>
    <path d="M24 14.2l-1 .8M28 14.2l1 .8" stroke="#0a0a0a" stroke-width="0.8" stroke-linecap="round"/>
  </g>
  
  <!-- Optional: Add subtle border for better visibility on light backgrounds -->
  <rect width="512" height="512" fill="none" stroke="#1a1a1a" stroke-width="2" rx="0"/>
</svg>